<svg height="30" viewBox="0 0 168 30" width="168" xmlns="http://www.w3.org/2000/svg"><path d="m30.1293023 4.88837209c.2409303.08465117.4762791.16232558.6855814.27627907.6423256.35116279 1.1934884.9 1.5423256 1.57813954.2897674.56790697.5325581 1.31488372.6148837 2.08418604-.0037209.0655814.0186047-.02790697.0241861.01255814.0390697.47302326.0916279.93813954.0953488 1.31255812.0130233 1.5344186-.0037209 3.0227907-.0116279 4.5902326l.0008794.211875c.0015043.2367296-.0000654.5499854-.0492515.9574273-.0897674.7451163-.3772093 1.5260465-.7339535 2.06-.0260465.0376744-.0786046.0934884-.1213953.1548837-.0860465.1255814-.1832558.2413954-.2893024.3627907-.8106976.927907-2.1069767 1.5781396-3.76 1.5051163-.3246511-.0130233-.5358139-.0167442-.8288372-.084186-.6446511-.0706977-1.1976744-.2218605-1.7-.4948838.1590698-.416279.2786047-.7767441.4093024-1.2027907.7432558.3827907 1.5386046.5716279 2.6502325.5660466.0595349-.003721-.0260465-.0130233.0130233-.0241861.0860465-.0260465.2-.0111628.2874418-.024186.3641861-.0506977.7376745-.1776745 1.0367442-.3623256.8832558-.5418605 1.3986047-1.4869768 1.555814-2.7102326.0111628-.3548837.0297674-.6367442.024186-1.0609302-.1548837.1869767-.2465116.4-.3865116.567907-.035814.0427907-.0823256.0781395-.1195349.1195348-.2502325.2688373-.6069767.5283721-.9883721.675814-.6981395.2655814-1.6581395.3437209-2.4465116.1925581-.4967442-.0972093-.9469768-.1772093-1.3483721-.3865116-.7767442-.4013953-1.3111628-1.0046512-1.6976744-1.7953488-.027907-.055814-.0483721-.115814-.0730233-.1790698-.024186-.06-.0613953-.1130232-.0837209-.1693023-.0469768-.1130233-.0581395-.252093-.1083721-.3734884-.1590698-.3762791-.2186047-1.0506977-.3139535-1.5306977-.0595349-.2967442-.0483721-.7413953-.0483721-1.1916279 0-.2181395.0018605-.4293023.0111628-.62744183.0111628-.20930233.0111628-.48744186.0613954-.61441861.0469767-.74604651.2767441-1.50883721.5418604-2.1572093.0167442-.02790698.0241861-.00651163.0353489-.02232558.5995348-1.25674419 1.5037209-2.09906977 2.9865116-2.36139535.0130232-.00697674.0539535-.03674419.0260465-.01209302.6688372-.13860465 1.8790698-.06372093 2.5065116.15674418zm-23.64837207.15674419c.0972093.02790698.2372093.0744186.26511628.13255814.51906977.22046511.95627907.70232558 1.32418605 1.19255814.18093023.24093023.34372093.54465116.48186046.80604651.18325582.43302326.3227907.95813953.43534884 1.39767442.10046512.40093023.09674419.82093023.14372093 1.13302325.02418605.16790698.00744186.33999996.01116279.48186046.00930233.3511628.00744186.6832558-.01116279 1.155814 0 .0311628-.00930232.0148837-.02465116.012093.02837209.0451163-.00511628.1093023-.01116279.1813953-.02604651.3125582-.05953489.8190698-.13255814.975814-.22 1.2972093-.78604651 2.2976744-1.66372093 2.9627907-.78465117.5209302-1.76883721.7972093-2.97348837.7469767-.19255814-.0074418-.37720931-.0334883-.54372093-.0711628-.32093024-.0730232-.66465117-.1269767-.91488373-.2539534-.39767441-.2018605-.7716279-.4948838-1.03674418-.8423256-.10837209-.143721-.16976744-.3120931-.28744186-.4465117v5.0595349c-.52093023.0093024-.98790698.0093024-1.51860465 0-.00372093-.2855814-.01302326-.416279-.01302326-.6869767 0-.2018605.02976744-.4744186.01302326-.7339535-.0055814-.0711628 0-.0916279 0-.2167442 0-.0674419.00558139-.1195349-.02418605-.1925581.01116279.0055814.01674419.0316279.02418605.0111628-.01302326-.1195349 0-.3623256 0-.5172093 0-.3325582-.02604652-.6330233 0-.8925582.02976744-.3065116-.02604652-.6427907-.01302326-.9395349.00372093-.0711628-.00186046-.0432558 0-.0953488.0055814-.0823256.01302326-.2632558.01302326-.4106977 0-.1306977-.03348838-.3325581 0-.4558139.01674418-.063721-.01674419-.0618605-.01302326-.1102326.02790698-.28-.02976744-.6786046 0-.9269767.02046512-.1651163.00372093-.395814.01302326-.5181396.01674418-.2325581-.01860465-.4474418-.01302326-.6506976.02604651-.9013954-.05209302-1.8260466.04837209-2.99953493.02093024-.24093023.03395349-.4972093.08418605-.7227907.0055814-.02651162.03209302-.04697674.03534884-.07302325.08976744-.40046512.11767442-.71441861.25395349-1.07209302.03581395-.09162791.07116279-.19720931.12186046-.31162791.07255814-.17023256.16418605-.36093023.26325582-.5427907.02418604-.04186046.05953488-.06651163.08558139-.10930232.03953488-.0627907.05627907-.13906977.09534884-.19209303.10837209-.14232558.2372093-.31302325.37348837-.45767442.03023256-.03116279.07674419-.04139535.10837209-.07302325.02093024-.01860465.01674419-.05116279.03581396-.07162791.0316279-.03302326.09116279-.05627907.13255814-.09627907.04651162-.04325581.1344186-.12883721.21860465-.19348837.05023255-.03813954.12883721-.05906977.17906976-.09627907.39209303-.28930233.96372093-.4855814 1.56697675-.5772093.01116279-.00744186.02046511-.01116279.02418604-.02511628.01302326.0027907.00744187.01255814 0 .01255814.97302326-.15069768 2.13674419-.06372093 2.8427907.31348837zm8.93860467-.31348837c.3381395.06976744.6818604.13209302.9767442.26511628.7716279.34883721 1.3934883.8544186 1.8060465 1.51813953.0372093.03162791.0353488.02697675.0730232.06.3660465.67860465.6181396 1.29255814.6739535 2.27674419l.0053747.00802756.003323-.00735314c.0007684.01382232.0022865.02994139.0032688.03766604l-.0008037-.01415442c.0655814.77860465.0395349 1.26232555.0376744 1.81906975-.0023255.2669768-.0037209.532093 0 .8069768.003721.6106976-.0186046 1.4455814-.3009302 2.2409302-.0990698.1906977-.192093.4209302-.3153488.6148837-.1218605.1962791-.2711628.3641861-.3962791.5418605-.3474419.3190698-.6967442.6144186-1.1693023.8553488-.4181396.2130233-.8869768.3004651-1.3855814.3976744-.4632558.087907-1.1897675.1176745-1.7218605.0353489-1.4962791-.2316279-2.6260465-.8869768-3.1809302-2-.2106977-.4265117-.3023256-.9176744-.3004651-1.4097675 0-.2083721-.003721-.4744186.0353488-.6739535.3046512-1.5139534 1.2869767-2.3897674 2.7474419-2.75953484.2483721-.06186046.4669767-.06930232.6874418-.08325581.567907-.03813954 1.0813954-.02325582 1.6846512.04744186.0744186.00883721.2781395.0172093.3376744.04883721.004186.00186046-.027907.01674418-.0223256.02325581.6874419.09255814 1.1972093.26232558 1.7930233.4827907.0055814-.45767442.0334883-1.07581395-.1083721-1.68744186-.3381396-1.17674419-1.1204651-2.11534884-2.3716279-2.26465116-.1460465-.01674419-.2748837-.01488372-.3623256-.02325582-.035814-.00465116-.1795349-.01209302-.1683721 0-.3325581.02511628-.8572093.02325582-1.3260465.14465117-.6181395.15860465-1.1972093.40372093-1.6734884.70976744-.1344186-.36883721-.2855814-.8-.4088372-1.21674419.4330233-.29395349 1.0065116-.50976744 1.552093-.66232558.2576744-.07162791.6181396-.07813953.7841861-.14465116.6186046-.04930233 1.4381395-.10651163 2.0116279.01255814zm29.1413953-.07302326c1.66.07348837 2.9581396.91302326 3.6251163 2.08418605.1474419.32325581.3213954.64930232.4088372 1.07209302.2446512.75906977.2055814 1.70883721.2055814 2.84232558 0 .7362791.0427907 1.5083721-.0353488 2.0367442-.0148837.0962791-.1083721.5297674-.1460465.7474418-.0111628-.0069767-.0167442-.0339534-.0241861-.012093-.1981395.7493024-.6144186 1.3506977-1.1558139 1.7818605-.1720931.1386046-.3344186.2483721-.5172093.3623256-.5306977.3288372-1.2144186.5623256-1.9409303.6279069-.4669767.0390698-1.0027907.0595349-1.4567442-.0134883-1.3688372-.2181396-2.4316279-.7786047-3.0479069-1.7348837-.6483721-1.0762791-.5697675-2.6869768.1213953-3.6739535.2465116-.3539535.5753489-.6353489.8776744-.86883724.4204652-.2455814.8386047-.43488372 1.3502326-.5655814.287907-.07302325.6260465-.08232558.9265116-.09534883.5548837-.02418605 1.1376744-.0083721 1.6883721.09534883.2706977.05209303.6013954.11953489.7693023.18093024.403721.06744186.7697675.23534883 1.1097675.32511627.0130232-.30093023-.0018605-.69674418-.0246512-.91534883-.0334884-.29488372-.0390697-.5683721-.1083721-.81906977-.2688372-.9655814-.9074418-1.76372093-1.8432558-2.09627907-.2316279-.08232558-.5809302-.12139535-.7953488-.13162791-.063721-.00372093-.2465117-.01581395-.252093 0-.6986047-.01674418-1.8213954.20651163-2.4934884.56604651-.175814.09209303-.3474419.21162791-.5190698.2883721-.1065116-.35674419-.2655814-.78976744-.3981395-1.19162791.4055814-.3144186.9116279-.51162791 1.5297674-.6627907.1734884-.07116279.5060465-.10837209.7846512-.14465116.0260465.00651163-.0153489-.04790698.0130232-.01209302.3734884-.03209303.8083721-.09534884 1.3483721-.07302326zm21.3102326.33813954c.1604651.08558139.3883721.19395348.5786046.28930232.1404652.11395349.3381396.22976744.4688373.34930233.0748837.06697674.2018604.18.3009302.28930232.112093.11953489.2032558.22418605.3023256.37348837.4353488.66139535.6032558 1.67906977.4688372 2.43302326-.0990698.56093023-.2539535 1.08976744-.5655814 1.49395351-.5251163.6790697-1.387907 1.0525581-2.4581396 1.156279-.2990697.0641861-.676279.0567442-1.0609302.0474419-1.0511628-.0223256-2.1516279-.0860465-3.2158139-.2409302-.0190698.1493023-.003721.2353488.0130232.3976744.0130233.1344186.0316279.3269767.0595349.3493023.1288372.9786047.4855814 1.8339535 1.0962791 2.3744186l.1288889.0941947c.02.0172265.0380878.0371232.0525064.0625495.2353489.1534884.5023256.2730233.7693023.3604651.0297675.0093024.0562791.0395349.0860466.0488372.388372.1232559.8032558.1120931 1.156279.1083721.3655814-.004186.7711628-.0209302 1.1911628-.1083721.3195349-.0916279.5641861-.172093.8688372-.2897674.2051163-.1306977.5060465-.2651163.6851163-.4465116.0037209-.0134884.0130233-.0060465.0130233 0 .1683721.3716279.2972093.8293023.4223255 1.2046511-.0823255.1195349-.2744186.1776744-.3511628.2655814-.1981395.1004651-.452093.2013954-.6237209.2893024-.392093.136279-.7995349.1851162-1.2176744.2539534-.0265116.003721-.0186047.0167442-.0488372.0241861-.2427907.0562791-.5939535.0469767-.9283721.0469767-.5 0-.9372093-.0334883-1.3595349-.1083721-1.4548837-.2576744-2.4595349-1.1544186-2.9883721-2.3237209-.4367442-.9818605-.5711628-2.3665116-.5786046-3.3023256 0-.1232558.024186-.3418604.0130232-.50511625.0297675-.11302326.0353489-.27069768.0483721-.40976745.0674419-.85069767.2576744-1.65116279.6255814-2.3972093.2-.40837209.455814-.76325581.7344186-1.09534883.2181396-.26186047.4683721-.4483721.7116279-.66325582.1604651-.08418605.3116279-.17953488.4572093-.2772093.4148837-.18976744.8144186-.32232558 1.3130233-.42232558.9637209-.13534884 2.0246511-.03255814 2.8316279.27767442zm-43.6590698-3.74697675c.0432558 2.74837209.0018605 5.03627907.0130233 7.52883721.0116279 2.42604655.0037209 4.83534885 0 7.21720935-.4781396.0204651-1.04.0204651-1.5181396 0 .055814-4.8302326-.0730232-9.71627912 0-14.56511633.0018605-.04744186-.0339534-.15767441.0483721-.18093023.1888372.00325582.3734884.01395349.5790698.01255814.0251163-.00069767.0975872-.00008721.1654142.00006541l.0643532-.00006541c.0353489-.00093023.14.00372093.1548838 0 .1269767-.03069767.3027907.00744186.4930232-.01255814zm17.3841861 3.40883721c.0246511.39581395.0023256.79534884.0134883 1.20465116-.0860465.04651163-.1813953.02418605-.2055814.02511628-.4688372.03348838-1.1358139.15767442-1.5297674.39674419-.1046512.06372093-.2130233.14372093-.3004651.21674419-.0953488.07860465-.1702326.1716279-.2655814.22976744-.1381395.18093023-.3302326.45767442-.4590698.68651162-.3567442.77953489-.4874418 1.87953489-.504186 2.74604647-.0376744 1.8632559.0372093 3.8934884-.0134884 5.8427907-.4986046-.0074418-1.0269767.0167442-1.5051163-.0111627-.024186-1.5111628-.024186-3.1260466-.0130232-4.7348838.0055814-.536279-.0260465-1.1218604.0260465-1.7465116.0655814-.81813953.2916279-1.85348837.6144186-2.49348837.2353488-.46790697.4930232-.87860465.8423256-1.20558139.4576744-.4283721 1.0009302-.75162791 1.6995349-.9627907.4855813-.14837209.956279-.16232558 1.6004651-.19395349zm11.264186.28930233c.1548837.52372093.34 1.01627907.4818605 1.55488372.0483721-.02697675.0093023.00558139.0130232.01209302.0655814.15488372.1009303.31953488.1548838.48186047.0413953.12325581.0748837.24093023.1213953.37255814.2390698.68279069.5232558 1.6288372.7697674 2.41023255.3190698 1.00418602.6311628 1.99209302.9897675 3.04744182.0916279.3032559.1586046.5934884.252093.8674419.0916279.2688372.1776744.5437209.2897675.8069767.1344186-.2539534.1790697-.5474418.276279-.8190697.0502326-.1395349.1027907-.2739535.1567442-.4213954.0860465-.2372093.1832558-.6088372.2893023-.9037209.0525582-.1446512.0897675-.2906977.1441861-.4334884.0093023-.0223256.0372093-.0316279.0483721-.06.0409302-.1079069.0558139-.252093.0972093-.3618604.1567442-.4213954.304186-.8781396.444186-1.3130233.5753489-1.67069767 1.1506977-3.45906976 1.7706977-5.24093022h1.5297674c-.1455814.48744186-.3344186.98046511-.504186 1.46976744-.0581395.16651163-.1083721.33627907-.1702326.49488372-.0539535.13860465-.0874418.29906977-.1437209.43348837-.0823256.19813954-.2186046.63023256-.3139535.83023256-.1153488.24186046-.1493023.54604651-.252093.79581395-.0111628.02604651-.0372093.03069768-.0483721.06046512-.0390698.1027907-.055814.22046512-.0972093.32511628-.1065116.27813953-.1883721.58837209-.3116279.87953488-.1906977.4474419-.3790698 1.1111628-.5660465 1.6134884-.0483721.1251163-.0990698.3716279-.1455814.4465116-.1065116.1683721-.1813954.5344186-.2767442.7827907-.0093023.024186-.024186.04-.0372093.0716279-.3567442.9441861-.6609302 1.9553488-.9990698 2.8441861-.5827907.0279069-1.2158139.0037209-1.8190697.0130232-.1683721-.4111628-.2990698-.8813953-.4706977-1.3502325-.0074419-.0223256-.0037209-.0339535-.0111628-.0488373-.0804651-.1567441-.1776744-.5065116-.252093-.7474418-.0730233-.2353489-.1702326-.4651163-.2409303-.6986047-.1516279-.4911628-.3288372-.9804651-.4948837-1.4697674-.2502325-.7423256-.5083721-1.5051163-.7827907-2.26465117-.1325581-.36883721-.2409302-.76372093-.3734883-1.15674419-.1567442-.46697674-.3381396-.97395349-.4818605-1.38511628-.2297675-.6544186-.4409302-1.30744186-.6386047-1.93953488zm45.7460465-.27441861c2.9172093 0 4.3967444 1.22790698 4.3967444 3.65069768v7.49488375h-1.5106979v-1.1460465l-.1.1c-.8837209.8832558-1.6837209 1.1813953-3.1706976 1.1813953-1.5148838 0-2.4130233-.2897674-3.1018605-1.0009302-.5209302-.52-.8195349-1.3293024-.8195349-2.2195349 0-1.9744186 1.4153489-3.15255815 3.7855814-3.15255815h3.4065116v-1.12186047c0-1.73023255-.8967441-2.50139535-2.9083721-2.50139535-1.4051162 0-2.1497674.3255814-2.8139534 1.23767442l-1.0190698-.93627907c.9083721-1.15534883 1.9595349-1.58604651 3.8553488-1.58604651zm53.0655814 0c2.917209 0 4.396279 1.22790698 4.396279 3.65069768v7.49488375h-1.510698v-1.1460465l-.1.1c-.883721.8832558-1.683721 1.1813953-3.170232 1.1813953-1.514419 0-2.413489-.2897674-3.102326-1.0004651-.52093-.5209302-.819535-1.3302326-.819535-2.22 0-1.9744186 1.415349-3.15255815 3.786047-3.15255815h3.406046v-1.12186047c0-1.73023255-.896744-2.50139535-2.908372-2.50139535-1.405116 0-2.149767.3255814-2.813488 1.23767442l-1.019535-.93627907c.908372-1.15534883 1.96-1.58604651 3.855814-1.58604651zm-42.05814 0c1.53721 0 2.480931.41674419 3.580931 1.58930233l-1.021861.96c-.823721-.89906977-1.49907-1.21953489-2.55907-1.21953489-1.12372 0-2.031627.44697675-2.625581 1.29116279-.522325.72651163-.734884 1.60139535-.734884 3.0195349 0 1.4181395.212559 2.2930232.734419 3.0190698.593488.844186 1.50186 1.2911627 2.626046 1.2911627 1.045582 0 1.720931-.3255813 2.558605-1.2413953l1.022791.9818605c-1.1 1.1725581-2.043256 1.5897674-3.581396 1.5897674-3.004651 0-4.871162-2.1613953-4.871162-5.6404651 0-3.4795349 1.866511-5.64046513 4.871162-5.64046513zm34.576745-4.44418604v12.61767437c0 1.1981396.449767 1.6869768 1.551628 1.6869768h.823721v1.2851163h-1.117675c-1.759535 0-2.768372-1.0590698-2.768372-2.9046512v-12.68511627zm-9.285582 4.58046511v11.00930236h-1.510232v-11.00930236zm-8.138604-.13627907c1.14279 0 2.147907.36372093 2.831162 1.02372093.784186.76139535 1.181396 1.78976744 1.181396 3.05627907v7.06558143h-1.510698v-6.79395352c0-1.92046512-1.01907-3.02186047-2.795814-3.02186047-1.725581 0-2.84 1.11534884-2.84 2.84046512v6.97534887h-1.511163v-6.79395352c0-1.92046512-1.019069-3.02186047-2.795348-3.02186047-1.778605 0-2.840466 1.12930233-2.840466 3.02186047v6.79395352h-1.510697v-11.00930236h1.510697v1.31813954l.102326-.11767442c.766046-.87441861 1.837674-1.33674419 3.099535-1.33674419 1.537674 0 2.701395.63069768 3.364186 1.82418605l.045116.08232558.054419-.07674419c.853953-1.2144186 2.070697-1.82976744 3.615349-1.82976744zm12.626046-4.44418604v12.61767437c0 1.1981396.449768 1.6869768 1.551628 1.6869768h.823256v1.2851163h-1.117209c-1.759535 0-2.768373-1.0590698-2.768373-2.9046512v-12.68511627zm23.92 4.44418604c1.166977 0 2.137675.35348837 2.807907 1.02372093.764651.74232558 1.135814 1.74186047 1.135814 3.05627907v7.06558143h-1.511163v-6.79395352c0-1.92046512-1.018604-3.02186047-2.794883-3.02186047-1.764652 0-2.817675 1.12930233-2.817675 3.02186047v6.79395352h-1.510698v-11.00930236h1.510698v1.31813954l.102791-.11767442c.765581-.87441861 1.829767-1.33674419 3.077209-1.33674419zm-74.7516278 0c1.1427907 0 2.147907.36372093 2.8311628 1.02372093.7832558.76093023 1.1804651 1.78883721 1.1804651 3.05627907v7.06558143h-1.5106976v-6.79395352c0-1.92046512-1.0186047-3.02186047-2.7948838-3.02186047-1.7255814 0-2.8409302 1.11534884-2.8409302 2.84046512v6.97534887h-1.5106977v-6.79395352c0-1.92046512-1.0190697-3.02186047-2.7958139-3.02186047-1.7786047 0-2.84 1.12930233-2.84 3.02186047v6.79395352h-1.5106977v-11.00930236h1.5106977v1.31813954l.1027907-.11767442c.7655814-.87441861 1.8372093-1.33674419 3.0995349-1.33674419 1.5372093 0 2.7004651.63069768 3.3632558 1.82418605l.0455814.08186046.0539535-.07627907c.8553488-1.2144186 2.0716279-1.82976744 3.616279-1.82976744zm-43.2065116 5.85302323c-.0265116-.036279.0241861.0274419-.0227907.0111628-.6013953.0841861-1.1223256.3572093-1.4209302.795814-.112093.1613953-.1962791.4148837-.2651163.5772093-.112093.4688372-.1348837.9237209-.0488372 1.3260465.0748837.3530232.2353488.6069767.4223256.8311628.0632558.0767442.1493023.1367442.2032558.2283721.3269767.2390697.7060465.4632558 1.132093.5902325.2706977.0818605.5809302.1009303.8572093.1083721.5995349.0204651 1.1934884-.0730232 1.6976744-.2655814.08-.0725581.1869768-.0967442.2762791-.1548837.6911628-.4395349 1.1018605-1.2004651 1.1093023-2.1576744.0055814-.04.0265116.0534884.0246512-.0111628-.0134884-.1362791.0111628-.4297674.0111628-.6386047 0-.2427907-.0186047-.488372-.0111628-.7227907-1.2683721-.3623255-2.5795349-.676279-3.9651163-.5176744zm-29.7911628-.0130232c-.8144186.1534883-1.4306977.5134883-1.6981395 1.2888372-.0576744.1744186-.1097675.4772093-.1195349.6511628 0 .0213953-.0037209.0372093-.0130233.0474418.0093024.003721.0153489.0111628.0130233.0241861-.0409302.0111628-.0186047.2818604-.0241861.4334884.027907.0558139.0581396.4013953.143721.6032558.0711628.1186046.1795349.3023255.2655814.4451162.0706976.0386047.1190697.0972093.1567442.1697675.1530232.1251163.3623255.2948837.5548837.42.7413953.4353488 1.8637209.4893023 2.8293023.2786046.0409302-.0525581.2037209-.0655814.2893023-.0972093.2055814-.0711628.4353489-.1944186.5902326-.312093.2972093-.2260465.5269767-.5288372.6874419-.88.3995348-.8730232.2111627-1.832093.252093-2.5418605-.7693024-.2446511-1.6790698-.4353488-2.48-.5306976-.4427907-.0520931-1.0330233-.0762791-1.4474419 0zm14.8534884-4.61302328c-.4893023-.02325582-1.0739535.15302325-1.4683721.39767441-.1153488.10093024-.2367442.19627907-.3618605.28790698-.8144186.80837209-1.0869767 2.31116279-1.1209302 3.54186049.032093.0981395-.0353488.0627907.0130233.1693023-.0539535.1465116-.0093024.5209302-.0130233.5534884-.0037209.0367442 0 .0018604 0 .0488372.0055814.6265116.1497674 1.6311628.4223256 2.3130232.0916279.1697675.1772093.3623256.2893023.5302326.3809302.5683721.8646512.9418605 1.5409302 1.1325581.6534884.1846512 1.44.1246512 2.1083721-.1330232.7251163-.3641861 1.2776744-.9493023 1.5786047-1.7586047.2088372-.5623256.1809302-1.1423256.1809302-1.9395349 0-.72.0260465-1.17488367-.0353488-1.69953484-.0934884-.76790697-.2539535-1.72046511-.6762791-2.34790697-.0483721-.07069768-.1139535-.12883721-.167907-.19302326-.0544186-.06651163-.1065116-.13953488-.1567442-.20465116-.2618604-.20651163-.54-.43906977-.9395348-.5427907-.2544186-.11860465-.7920931-.17162791-1.0125582-.15581395-.0111628-.03534884-.1660465-.02418605-.1809302 0zm-23.87627908-.02420939c-.04511628 0 .00558139.02420939-.03581396.02420939-.19767442-.00372093-.60883721.00930232-.92790697.10837209-1.24046512.38093023-1.80790698 1.47348837-1.96325582 2.99953488-.02046511.01302326-.01488372-.00372093-.02418604.03627907-.05395349.22139535-.05209303.52418605-.05953489.7827907-.00930232.29209304-.01488372.59395344-.01302325.86744184.00744186.5451163-.03023256 1.0795349.02604651 1.5781396.08790697.7939534.45953488 1.4660465.95069767 1.9148837.2483721.227907.49116279.4032558.80651163.567907.61627907.248372 1.39534884.28 2.10883721.1195348.01302326-.0111628-.00372093-.0302325.03534884-.0376744.34372093-.0651163.58651162-.2334884.84418604-.3846511.35860465-.2818605.66325582-.6693024.85534884-1.107907.04325581-.0981396.08232558-.1962791.11953488-.2409303.02604652-.1409302.08604652-.2316279.1083721-.3976744.03953488.0176744.06-.196279.08604651-.3130232.02790698-.1409303.07302325-.3204651.08232558-.3734884.11953488-.5744186.11348837-1.2381395.09674419-1.88-.01860466-.70139535-.12139535-1.4372093-.28744186-2.03581395-.13813954-.48930233-.35488373-.94883721-.65162791-1.30046512-.05441861-.06465116-.1027907-.14046512-.1572093-.19255814-.48744186-.49023256-1.25674419-.73767442-2-.73490706zm148.01720888 4.80886057h-3.179534c-1.689768 0-2.546512.6813953-2.546512 2.0260465 0 1.3358139.830698 1.9586046 2.613953 1.9586046.916745 0 1.800466-.0581395 2.527442-.7623255.393489-.3697675.584651-1.0125582.584651-1.9651163zm-53.0651159 0h-3.18c-1.6897674 0-2.5465116.6813953-2.5465116 2.0260465 0 1.3358139.8311628 1.9586046 2.6144186 1.9586046.9167442 0 1.8004651-.0581395 2.5274419-.7623255.3934883-.3702326.5846511-1.0130233.5846511-1.9651163zm-35.5734883-4.78465118c-.4218605-.03069768-1.0344186.12883721-1.3855814.32511628-.1962791.10837209-.3753489.22232558-.5306977.36046511-.6795349.61813954-1.0906977 1.61348837-1.2511628 2.62790698 0 .00651163 0 .00511628-.0130232.0827907-.0409303.25023255-.0544187.49767441-.0730233.69953488.3232558.05069763.5548837.06186043.8553488.08418603.0153489.0241861 0 .0102326.0246512.0241861.7358139.0669767 1.3781395.0804651 2.024186.1083721.4804652.0204651.9902326.0334883 1.4325582-.0609303.1083721-.0213953.2167442-.0716279.3269767-.1083721.2186047-.07069764.4051163-.18558137.5660465-.31255811.0223256-.01860465.2148838-.22325581.2032559-.22976744.0413953.02046512.112093-.19255814.1702325-.21674419.2260465-.47813953.3418605-1.24.167907-1.81906976-.0186047-.06372093-.0688372-.13255814-.0972093-.20465117-.2032558-.52372093-.5902326-.85813953-1.0102326-1.10837209-.4558139-.21488372-1.0195349-.25767442-1.3502325-.27627907-.0446512-.01674419-.0223256.03348837-.06.02418605zm69.0995352-5.56232558v1.7144186h-1.714419v-1.7144186z" fill="#4f504f" fill-rule="evenodd" transform="translate(0 5)"/></svg>